<?xml version="1.0" standalone="no"?>
<!DOCTYPE svg PUBLIC "-//W3C//DTD SVG 20010904//EN"
 "http://www.w3.org/TR/2001/REC-SVG-20010904/DTD/svg10.dtd">
<svg version="1.0" xmlns="http://www.w3.org/2000/svg"
 width="512.000000pt" height="512.000000pt" viewBox="0 0 512.000000 512.000000"
 preserveAspectRatio="xMidYMid meet">
<metadata>
Created by potrace 1.14, written by Peter Selinger 2001-2017
</metadata>
<g transform="translate(0.000000,512.000000) scale(0.100000,-0.100000)"
fill="#000000" stroke="none">
<path d="M2369 4886 c-2 -2 -31 -6 -64 -10 -58 -6 -81 -9 -155 -22 -65 -11
-76 -14 -176 -39 -54 -15 -107 -28 -117 -30 -9 -2 -22 -7 -27 -10 -5 -3 -19
-8 -30 -10 -12 -2 -35 -11 -52 -20 -17 -8 -35 -15 -39 -15 -15 0 -149 -63
-297 -139 -66 -34 -246 -157 -330 -226 -68 -56 -200 -184 -262 -254 -30 -34
-60 -68 -67 -75 -48 -53 -223 -315 -223 -335 0 -5 -4 -11 -8 -13 -11 -5 -88
-167 -134 -282 -38 -95 -100 -304 -112 -377 -3 -19 -10 -61 -16 -94 -32 -187
-35 -556 -6 -705 1 -8 7 -37 11 -65 5 -27 10 -52 10 -55 1 -3 5 -23 9 -45 4
-22 12 -54 17 -71 5 -17 11 -40 14 -50 5 -25 53 -173 64 -199 5 -11 24 -56 42
-100 18 -44 43 -99 56 -122 13 -23 36 -66 51 -95 41 -79 180 -285 229 -338 7
-8 25 -29 41 -46 97 -110 193 -204 281 -274 24 -19 49 -40 56 -47 7 -6 64 -46
126 -87 63 -42 120 -81 127 -86 6 -6 12 -8 12 -5 0 3 17 -5 38 -18 139 -87
470 -208 657 -241 17 -3 39 -8 50 -10 11 -2 43 -7 70 -11 28 -4 61 -9 75 -11
14 -3 117 -7 230 -8 256 -4 402 13 638 75 106 28 135 37 237 76 337 129 668
360 901 629 27 31 54 62 59 68 43 46 165 221 165 235 0 5 4 11 8 13 29 11 209
391 237 498 2 8 15 53 29 100 21 75 29 107 51 220 3 14 8 45 11 70 3 25 7 56
10 70 13 58 11 438 -3 545 -15 117 -50 286 -83 395 -17 58 -16 52 -24 75 -67
175 -140 341 -155 355 -3 3 -19 31 -36 63 -16 31 -33 57 -37 57 -4 0 -8 5 -8
10 0 10 -102 162 -125 186 -5 6 -21 25 -35 43 -70 93 -250 273 -337 338 -21
15 -45 36 -54 45 -9 10 -21 18 -28 18 -6 0 -11 5 -11 10 0 6 -6 10 -14 10 -8
0 -16 4 -18 8 -4 12 -95 72 -107 72 -6 0 -11 3 -11 8 0 4 -21 19 -47 32 -27
14 -50 27 -53 30 -9 9 -130 66 -266 126 -130 57 -350 113 -589 150 -42 6 -450
15 -456 10z"/>
</g>
</svg>
